<svg width="14" height="15" viewBox="0 0 14 15" fill="none" xmlns="http://www.w3.org/2000/svg">
<path fill-rule="evenodd" clip-rule="evenodd" d="M9.50165 0.0232716C8.95376 0.114941 8.47724 0.319198 8.02641 0.655654C7.82923 0.802791 1.08171 7.73887 0.884916 7.99668C0.453241 8.56226 0.175203 9.21142 0.0434382 9.96142C-0.00503007 10.2373 -0.0151077 10.8938 0.0242429 11.2117C0.179356 12.465 0.847152 13.5731 1.87525 14.283C2.09945 14.4379 2.58291 14.6827 2.83996 14.7717C3.61202 15.0388 4.45162 15.0724 5.24083 14.8679C5.8146 14.7192 6.39039 14.4227 6.85438 14.0371C7.06204 13.8645 13.8475 6.87055 13.9173 6.75712C13.9683 6.67432 14.011 6.47705 13.9975 6.38652C13.991 6.34289 13.9606 6.25343 13.9299 6.18773C13.7968 5.90228 13.456 5.78149 13.184 5.92335C13.1136 5.96008 12.5223 6.5593 10.5827 8.55926C6.00537 13.2792 6.18815 13.093 5.99613 13.2316C5.64273 13.4866 5.2443 13.6652 4.81487 13.7613C4.64557 13.7991 4.56858 13.8047 4.20579 13.805C3.74073 13.8053 3.61073 13.7868 3.25864 13.6698C3.01848 13.59 2.87607 13.5257 2.67339 13.4054C1.91266 12.9541 1.38567 12.2004 1.19455 11.2902C1.15856 11.1188 1.1526 11.0337 1.15192 10.6828C1.15125 10.3311 1.15695 10.2451 1.19315 10.0615C1.30869 9.47529 1.56091 8.97043 1.96866 8.50922C2.26564 8.1733 8.55987 1.71787 8.68163 1.62434C9.06006 1.33359 9.43335 1.19703 9.90189 1.17788C10.317 1.16091 10.6378 1.23095 10.9859 1.41454C11.452 1.66043 11.857 2.1227 12.014 2.58805C12.1395 2.95993 12.1424 3.38617 12.0223 3.76445C11.9723 3.92165 11.816 4.23035 11.7152 4.37092C11.66 4.44789 10.4659 5.6902 8.87724 7.32344C6.33061 9.94153 6.12512 10.1481 6.00266 10.2139C5.6577 10.3991 5.20699 10.4114 4.88555 10.2445C4.74056 10.1692 4.59682 10.0212 4.52766 9.876C4.47626 9.76808 4.47345 9.74965 4.47416 9.52481C4.47478 9.328 4.48207 9.26647 4.51694 9.16413C4.62129 8.85779 4.53063 8.95779 7.00368 6.42109C8.65253 4.72981 9.31037 4.04314 9.34062 3.98177C9.37521 3.91162 9.38273 3.8658 9.38271 3.7255C9.38267 3.57724 9.37617 3.54195 9.3335 3.45854C9.23127 3.25859 9.04743 3.14272 8.82929 3.14072C8.5701 3.13833 8.69738 3.02354 6.7621 5.00484C3.97644 7.8567 3.83663 8.00218 3.72314 8.16753C3.43541 8.58669 3.31702 8.98036 3.31498 9.52481C3.31276 10.1167 3.48569 10.574 3.8535 10.9489C4.19555 11.2975 4.65112 11.4961 5.19878 11.5352C5.83788 11.5809 6.41479 11.4026 6.89464 11.0111C6.974 10.9464 8.26068 9.63512 9.75392 8.09725C12.5848 5.18168 12.5907 5.17532 12.8233 4.77562C13.0084 4.45756 13.1514 4.05722 13.2136 3.68299C13.2547 3.43606 13.2622 3.0135 13.2299 2.77429C13.1454 2.14988 12.8589 1.55317 12.4056 1.05802C11.9389 0.548058 11.3419 0.204863 10.6546 0.0513474C10.4169 -0.00172912 9.74843 -0.0180165 9.50165 0.0232716Z" fill="white"/>
</svg>
