<svg width="18" height="16" viewBox="0 0 18 16" fill="none" xmlns="http://www.w3.org/2000/svg">
<path d="M8.90479 0.57778C8.31059 0.63459 7.95109 1.48691 7.23209 3.19154C6.81256 4.18634 6.60277 4.68375 6.204 5.00132C6.15789 5.03803 6.11018 5.07269 6.06102 5.1052C5.63576 5.38632 5.09787 5.43214 4.0221 5.52377C2.17873 5.68078 1.25704 5.75928 1.01938 6.30689C0.99407 6.36522 0.97437 6.42583 0.96057 6.4879C0.83096 7.0706 1.53048 7.6759 2.92951 8.8864C3.74597 9.5929 4.1542 9.9461 4.333 10.4235C4.35367 10.4787 4.37189 10.5348 4.38761 10.5916C4.52357 11.0829 4.40092 11.6086 4.15564 12.66C3.73533 14.4617 3.52517 15.3625 3.97254 15.7578C4.02019 15.7999 4.07175 15.8374 4.12652 15.8697C4.64067 16.173 5.43247 15.6948 7.01609 14.7383C7.94029 14.1801 8.40229 13.901 8.91159 13.8785C8.97049 13.8759 9.02949 13.8759 9.08839 13.8785C9.59759 13.901 10.0597 14.1801 10.9839 14.7383C12.5675 15.6948 13.3593 16.173 13.8735 15.8697C13.9282 15.8374 13.9798 15.7999 14.0274 15.7578C14.4748 15.3625 14.2647 14.4617 13.8443 12.66C13.5991 11.6086 13.4764 11.0829 13.6124 10.5916C13.6281 10.5348 13.6463 10.4787 13.667 10.4235C13.8458 9.9461 14.254 9.5929 15.0705 8.8864C16.4695 7.6759 17.169 7.0706 17.0394 6.4879C17.0256 6.42583 17.0059 6.36522 16.9806 6.30689C16.7429 5.75928 15.8213 5.68078 13.9779 5.52377C12.9021 5.43214 12.3642 5.38632 11.939 5.1052C11.8898 5.07269 11.8421 5.03803 11.796 5.00132C11.3972 4.68375 11.1874 4.18634 10.7678 3.19154C10.0489 1.48691 9.68939 0.63459 9.09519 0.57778C9.03189 0.57173 8.96809 0.57173 8.90479 0.57778Z" fill="#FFD400"/>
</svg>
